<?xml version="1.0" encoding="UTF-8"?>
<!DOCTYPE svg PUBLIC "-//W3C//DTD SVG 1.1//EN" "http://www.w3.org/Graphics/SVG/1.1/DTD/svg11.dtd">
<svg xmlns="http://www.w3.org/2000/svg" version="1.1" width="512px" height="512px" style="shape-rendering:geometricPrecision; text-rendering:geometricPrecision; image-rendering:optimizeQuality; fill-rule:evenodd; clip-rule:evenodd" xmlns:xlink="http://www.w3.org/1999/xlink">
<g><path style="opacity:0.942" fill="#51a1ff" d="M 18.5,-0.5 C 50.5,-0.5 82.5,-0.5 114.5,-0.5C 119.894,3.64648 120.727,8.64648 117,14.5C 115.352,15.717 113.519,16.5503 111.5,17C 81.5,17.3333 51.5,17.6667 21.5,18C 20.3333,19.1667 19.1667,20.3333 18,21.5C 17.6667,51.5 17.3333,81.5 17,111.5C 14.0586,119.381 8.89192,121.215 1.5,117C 0.934056,116.005 0.267389,115.172 -0.5,114.5C -0.5,82.5 -0.5,50.5 -0.5,18.5C 2.83333,9.16667 9.16667,2.83333 18.5,-0.5 Z"/></g>
<g><path style="opacity:0.942" fill="#51a1ff" d="M 396.5,-0.5 C 428.5,-0.5 460.5,-0.5 492.5,-0.5C 501.833,2.83333 508.167,9.16667 511.5,18.5C 511.5,50.5 511.5,82.5 511.5,114.5C 507.354,119.894 502.354,120.727 496.5,117C 495.283,115.352 494.45,113.519 494,111.5C 493.667,81.5 493.333,51.5 493,21.5C 491.833,20.3333 490.667,19.1667 489.5,18C 459.5,17.6667 429.5,17.3333 399.5,17C 391.619,14.0586 389.785,8.89192 394,1.5C 394.995,0.934056 395.828,0.267389 396.5,-0.5 Z"/></g>
<g><path style="opacity:0.985" fill="#52a1fe" d="M 511.5,165.5 C 511.5,168.5 511.5,171.5 511.5,174.5C 509.567,176.596 507.233,178.096 504.5,179C 475.502,179.5 446.502,179.667 417.5,179.5C 417.969,185.162 418.469,190.829 419,196.5C 440.364,194.014 451.53,203.681 452.5,225.5C 451.461,234.655 449.628,243.655 447,252.5C 442.263,266.044 437.93,279.711 434,293.5C 430.939,303.89 424.439,311.057 414.5,315C 412.527,315.495 410.527,315.662 408.5,315.5C 410.287,340.687 404.121,363.687 390,384.5C 371.167,411.333 348.333,434.167 321.5,453C 313.167,460.667 304.833,468.333 296.5,476C 284.032,484.034 270.365,487.534 255.5,486.5C 240.635,487.534 226.968,484.034 214.5,476C 196.089,458.918 177.089,442.585 157.5,427C 137.054,408.249 120.888,386.416 109,361.5C 103.917,346.611 101.75,331.277 102.5,315.5C 94.321,315.494 87.821,312.16 83,305.5C 81,301.5 79,297.5 77,293.5C 73.0703,279.711 68.7369,266.044 64,252.5C 61.3719,243.655 59.5386,234.655 58.5,225.5C 59.4696,203.681 70.6362,194.014 92,196.5C 92.6328,190.839 93.1328,185.172 93.5,179.5C 64.4981,179.667 35.4981,179.5 6.5,179C 3.76664,178.096 1.43331,176.596 -0.5,174.5C -0.5,171.5 -0.5,168.5 -0.5,165.5C 1.01027,164.164 2.67694,162.997 4.5,162C 34.4981,161.5 64.4981,161.333 94.5,161.5C 94.5021,132.19 104.002,106.523 123,84.5C 168.371,33.7075 224.871,14.5408 292.5,27C 340.353,37.8275 377.187,63.9942 403,105.5C 411.515,123.06 416.348,141.56 417.5,161C 447.167,161.333 476.833,161.667 506.5,162C 508.323,162.997 509.99,164.164 511.5,165.5 Z"/></g>
<g><path style="opacity:1" fill="#e6eaf4" d="M 301.5,47.5 C 333.811,64.3111 358.311,88.9777 375,121.5C 379.398,134.465 381.898,147.798 382.5,161.5C 297.833,161.5 213.167,161.5 128.5,161.5C 128.616,137.69 135.783,116.356 150,97.5C 165.456,78.0386 183.956,62.2053 205.5,50C 204.906,49.5357 204.239,49.369 203.5,49.5C 211.514,46.489 219.847,44.3223 228.5,43C 245.5,42.3333 262.5,42.3333 279.5,43C 286.969,43.927 294.302,45.427 301.5,47.5 Z"/></g>
<g><path style="opacity:1" fill="#fcfdfe" d="M 203.5,49.5 C 204.239,49.369 204.906,49.5357 205.5,50C 183.956,62.2053 165.456,78.0386 150,97.5C 135.783,116.356 128.616,137.69 128.5,161.5C 122.833,161.5 117.167,161.5 111.5,161.5C 111.866,136.216 120.366,114.216 137,95.5C 155.259,74.3895 177.426,59.0561 203.5,49.5 Z"/></g>
<g><path style="opacity:1" fill="#b1ccf8" d="M 301.5,47.5 C 340.663,60.3396 370.497,84.6729 391,120.5C 396.41,133.624 399.243,147.291 399.5,161.5C 393.833,161.5 388.167,161.5 382.5,161.5C 381.898,147.798 379.398,134.465 375,121.5C 358.311,88.9777 333.811,64.3111 301.5,47.5 Z"/></g>
<g><path style="opacity:1" fill="#fefefe" d="M 127.5,179.5 C 127.5,188.5 127.5,197.5 127.5,206.5C 125.194,206.993 122.861,207.326 120.5,207.5C 120.389,206.883 120.056,206.383 119.5,206C 116.832,205.433 114.166,204.933 111.5,204.5C 111.5,196.167 111.5,187.833 111.5,179.5C 116.833,179.5 122.167,179.5 127.5,179.5 Z"/></g>
<g><path style="opacity:1" fill="#e4e9f4" d="M 144.5,178.5 C 154.172,178.334 163.839,178.5 173.5,179C 178.961,189.422 184.294,199.922 189.5,210.5C 174.869,209.673 160.203,208.006 145.5,205.5C 144.502,196.525 144.168,187.525 144.5,178.5 Z"/></g>
<g><path style="opacity:1" fill="#e4e9f4" d="M 192.5,179.5 C 206.327,178.339 220.327,178.173 234.5,179C 225.333,188.167 216.167,197.333 207,206.5C 202.138,197.438 197.305,188.438 192.5,179.5 Z"/></g>
<g><path style="opacity:1" fill="#e4e9f4" d="M 276.5,179.5 C 290.327,178.339 304.327,178.173 318.5,179C 313.794,188.246 308.961,197.412 304,206.5C 294.965,197.298 285.798,188.298 276.5,179.5 Z"/></g>
<g><path style="opacity:1" fill="#e4e9f4" d="M 337.5,178.5 C 347.167,178.5 356.833,178.5 366.5,178.5C 366.832,187.525 366.498,196.525 365.5,205.5C 351.264,207.904 336.93,209.571 322.5,210.5C 326.95,199.599 331.95,188.932 337.5,178.5 Z"/></g>
<g><path style="opacity:1" fill="#b0ccf8" d="M 383.5,178.5 C 389.167,178.5 394.833,178.5 400.5,178.5C 400.5,189.167 400.5,199.833 400.5,210.5C 394.892,209.015 389.225,207.682 383.5,206.5C 383.5,197.167 383.5,187.833 383.5,178.5 Z"/></g>
<g><path style="opacity:1" fill="#96c3fa" d="M 245.5,192.5 C 245.56,191.957 245.893,191.624 246.5,191.5C 247.833,220.167 247.833,248.833 246.5,277.5C 245.893,277.376 245.56,277.043 245.5,276.5C 246.833,248.5 246.833,220.5 245.5,192.5 Z"/></g>
<g><path style="opacity:1" fill="#96c3fa" d="M 265.5,192.5 C 264.167,220.5 264.167,248.5 265.5,276.5C 265.44,277.043 265.107,277.376 264.5,277.5C 263.167,248.833 263.167,220.167 264.5,191.5C 265.107,191.624 265.44,191.957 265.5,192.5 Z"/></g>
<g><path style="opacity:1" fill="#e5eaf4" d="M 245.5,192.5 C 246.833,220.5 246.833,248.5 245.5,276.5C 237.169,273.585 229.002,270.252 221,266.5C 218.231,252.719 215.731,238.886 213.5,225C 223.66,213.673 234.327,202.84 245.5,192.5 Z"/></g>
<g><path style="opacity:1" fill="#e5eaf4" d="M 265.5,192.5 C 276.673,202.84 287.34,213.673 297.5,225C 295.269,238.886 292.769,252.719 290,266.5C 281.862,269.934 273.695,273.268 265.5,276.5C 264.167,248.5 264.167,220.5 265.5,192.5 Z"/></g>
<g><path style="opacity:1" fill="#e1eaf7" d="M 127.5,179.5 C 122.167,179.5 116.833,179.5 111.5,179.5C 111.5,187.833 111.5,196.167 111.5,204.5C 114.166,204.933 116.832,205.433 119.5,206C 120.056,206.383 120.389,206.883 120.5,207.5C 117.381,208.87 114.048,209.87 110.5,210.5C 110.5,199.833 110.5,189.167 110.5,178.5C 116.358,178.178 122.025,178.511 127.5,179.5 Z"/></g>
<g><path style="opacity:1" fill="#fbfcfe" d="M 82.5,212.5 C 86.8751,212.347 90.7084,213.68 94,216.5C 95.943,243.534 97.943,270.534 100,297.5C 97.497,294.498 95.497,291.165 94,287.5C 87.5195,268.727 81.8528,249.727 77,230.5C 76.1902,225.743 76.5236,221.076 78,216.5C 79.3968,214.93 80.8968,213.596 82.5,212.5 Z"/></g>
<g><path style="opacity:1" fill="#e4e9f4" d="M 423.5,212.5 C 427.182,212.591 430.349,213.924 433,216.5C 434.967,227.055 433.967,237.388 430,247.5C 425.465,260.771 421.132,274.105 417,287.5C 415.503,291.165 413.503,294.498 411,297.5C 413.078,270.532 415.078,243.532 417,216.5C 419.095,214.875 421.261,213.542 423.5,212.5 Z"/></g>
<g><path style="opacity:1" fill="#e4e9f4" d="M 132.5,222.5 C 154.286,223.765 175.953,226.098 197.5,229.5C 199.058,241.182 200.725,252.848 202.5,264.5C 184.497,264.667 166.497,264.5 148.5,264C 138.167,251.667 127.833,239.333 117.5,227C 122.664,225.631 127.664,224.131 132.5,222.5 Z"/></g>
<g><path style="opacity:1" fill="#e4e9f4" d="M 382.5,224.5 C 382.608,229.87 382.275,235.203 381.5,240.5C 375.38,248.459 369.046,256.292 362.5,264C 344.503,264.5 326.503,264.667 308.5,264.5C 310.019,252.553 312.019,240.72 314.5,229C 334.202,226.746 353.869,224.246 373.5,221.5C 376.677,222.337 379.677,223.337 382.5,224.5 Z"/></g>
<g><path style="opacity:1" fill="#b0ccf8" d="M 382.5,224.5 C 386.263,224.857 389.93,225.69 393.5,227C 389.635,231.694 385.635,236.194 381.5,240.5C 382.275,235.203 382.608,229.87 382.5,224.5 Z"/></g>
<g><path style="opacity:1" fill="#e4e9f4" d="M 135.5,275.5 C 135.5,284.833 135.5,294.167 135.5,303.5C 130.301,306.866 124.968,307.199 119.5,304.5C 117.15,286.333 115.317,268 114,249.5C 121.378,258.04 128.545,266.707 135.5,275.5 Z"/></g>
<g><path style="opacity:1" fill="#b0ccf8" d="M 376.5,372.5 C 375.833,350.833 375.167,329.167 374.5,307.5C 374.172,296.654 374.506,285.987 375.5,275.5C 375.334,281.176 375.501,286.843 376,292.5C 376.897,286.194 377.397,279.861 377.5,273.5C 383.764,265.393 390.264,257.393 397,249.5C 394.142,278.087 391.809,306.754 390,335.5C 388.394,348.947 383.894,361.28 376.5,372.5 Z"/></g>
<g><path style="opacity:1" fill="#e1e8f4" d="M 377.5,273.5 C 377.397,279.861 376.897,286.194 376,292.5C 375.501,286.843 375.334,281.176 375.5,275.5C 375.833,274.5 376.5,273.833 377.5,273.5 Z"/></g>
<g><path style="opacity:1" fill="#8cbefb" d="M 211.5,281.5 C 196.99,281.171 182.657,281.504 168.5,282.5C 167.957,282.44 167.624,282.107 167.5,281.5C 182.328,280.174 196.995,280.174 211.5,281.5 Z"/></g>
<g><path style="opacity:1" fill="#8cbefb" d="M 299.5,281.5 C 314.005,280.174 328.672,280.174 343.5,281.5C 343.376,282.107 343.043,282.44 342.5,282.5C 328.343,281.504 314.01,281.171 299.5,281.5 Z"/></g>
<g><path style="opacity:1" fill="#e6eaf4" d="M 168.5,282.5 C 182.657,281.504 196.99,281.171 211.5,281.5C 223.028,286.066 234.528,290.732 246,295.5C 246.5,304.827 246.666,314.161 246.5,323.5C 236.161,323.666 225.828,323.5 215.5,323C 199.961,309.29 184.295,295.79 168.5,282.5 Z"/></g>
<g><path style="opacity:1" fill="#e6eaf4" d="M 299.5,281.5 C 314.01,281.171 328.343,281.504 342.5,282.5C 326.705,295.79 311.039,309.29 295.5,323C 285.172,323.5 274.839,323.666 264.5,323.5C 264.334,314.161 264.5,304.827 265,295.5C 276.336,290.415 287.836,285.748 299.5,281.5 Z"/></g>
<g><path style="opacity:1" fill="#8dbefb" d="M 154.5,292.5 C 153.503,313.994 153.169,335.66 153.5,357.5C 152.172,335.663 152.172,313.663 153.5,291.5C 154.107,291.624 154.44,291.957 154.5,292.5 Z"/></g>
<g><path style="opacity:1" fill="#e6eaf4" d="M 154.5,292.5 C 168.307,304.802 182.307,316.968 196.5,329C 198.227,330.389 199.561,332.056 200.5,334C 194.848,341.656 189.181,349.323 183.5,357C 173.506,357.5 163.506,357.666 153.5,357.5C 153.169,335.66 153.503,313.994 154.5,292.5 Z"/></g>
<g><path style="opacity:1" fill="#e6eaf4" d="M 356.5,292.5 C 357.497,313.994 357.831,335.66 357.5,357.5C 347.494,357.666 337.494,357.5 327.5,357C 321.819,349.323 316.152,341.656 310.5,334C 311.439,332.056 312.773,330.389 314.5,329C 328.693,316.968 342.693,304.802 356.5,292.5 Z"/></g>
<g><path style="opacity:1" fill="#8dbefb" d="M 356.5,292.5 C 356.56,291.957 356.893,291.624 357.5,291.5C 358.828,313.663 358.828,335.663 357.5,357.5C 357.831,335.66 357.497,313.994 356.5,292.5 Z"/></g>
<g><path style="opacity:1" fill="#fefefe" d="M 135.5,303.5 C 135.831,326.673 135.498,349.673 134.5,372.5C 127.264,361.581 122.764,349.581 121,336.5C 120.433,325.833 119.933,315.166 119.5,304.5C 124.968,307.199 130.301,306.866 135.5,303.5 Z"/></g>
<g><path style="opacity:1" fill="#a9d0fd" d="M 135.5,275.5 C 136.664,308.331 136.831,341.331 136,374.5C 135.283,373.956 134.783,373.289 134.5,372.5C 135.498,349.673 135.831,326.673 135.5,303.5C 135.5,294.167 135.5,284.833 135.5,275.5 Z"/></g>
<g><path style="opacity:1" fill="#84b8fb" d="M 374.5,307.5 C 375.167,329.167 375.833,350.833 376.5,372.5C 376.217,373.289 375.717,373.956 375,374.5C 374.5,352.169 374.333,329.836 374.5,307.5 Z"/></g>
<g><path style="opacity:1" fill="#e6eaf4" d="M 216.5,341.5 C 226.5,341.5 236.5,341.5 246.5,341.5C 246.5,358.167 246.5,374.833 246.5,391.5C 236.5,391.5 226.5,391.5 216.5,391.5C 210.316,383.146 204.316,374.646 198.5,366C 204.382,357.732 210.382,349.566 216.5,341.5 Z"/></g>
<g><path style="opacity:1" fill="#9ec7f9" d="M 216.5,341.5 C 226.653,340.506 236.986,340.172 247.5,340.5C 247.5,357.833 247.5,375.167 247.5,392.5C 236.986,392.828 226.653,392.494 216.5,391.5C 226.5,391.5 236.5,391.5 246.5,391.5C 246.5,374.833 246.5,358.167 246.5,341.5C 236.5,341.5 226.5,341.5 216.5,341.5 Z"/></g>
<g><path style="opacity:1" fill="#9ec7f9" d="M 294.5,341.5 C 284.5,341.5 274.5,341.5 264.5,341.5C 264.5,358.167 264.5,374.833 264.5,391.5C 274.5,391.5 284.5,391.5 294.5,391.5C 284.347,392.494 274.014,392.828 263.5,392.5C 263.5,375.167 263.5,357.833 263.5,340.5C 274.014,340.172 284.347,340.506 294.5,341.5 Z"/></g>
<g><path style="opacity:1" fill="#e6eaf4" d="M 294.5,341.5 C 300.618,349.566 306.618,357.732 312.5,366C 306.684,374.646 300.684,383.146 294.5,391.5C 284.5,391.5 274.5,391.5 264.5,391.5C 264.5,374.833 264.5,358.167 264.5,341.5C 274.5,341.5 284.5,341.5 294.5,341.5 Z"/></g>
<g><path style="opacity:1" fill="#e6eaf4" d="M 183.5,375.5 C 188.476,382.148 193.476,388.815 198.5,395.5C 197.91,396.799 196.91,397.632 195.5,398C 188.479,400.514 181.479,403.014 174.5,405.5C 167.087,396.762 160.087,387.762 153.5,378.5C 153.5,377.5 153.5,376.5 153.5,375.5C 163.5,375.5 173.5,375.5 183.5,375.5 Z"/></g>
<g><path style="opacity:1" fill="#e5eaf4" d="M 327.5,375.5 C 337.5,375.5 347.5,375.5 357.5,375.5C 357.5,376.5 357.5,377.5 357.5,378.5C 350.913,387.762 343.913,396.762 336.5,405.5C 327.969,403.228 319.969,399.895 312.5,395.5C 317.524,388.815 322.524,382.148 327.5,375.5 Z"/></g>
<g><path style="opacity:1" fill="#99c6fc" d="M 183.5,375.5 C 173.5,375.5 163.5,375.5 153.5,375.5C 153.5,376.5 153.5,377.5 153.5,378.5C 153.5,384.833 153.5,391.167 153.5,397.5C 152.508,390.018 152.175,382.352 152.5,374.5C 163.014,374.172 173.347,374.506 183.5,375.5 Z"/></g>
<g><path style="opacity:1" fill="#88bafa" d="M 327.5,375.5 C 337.653,374.506 347.986,374.172 358.5,374.5C 358.825,382.352 358.492,390.018 357.5,397.5C 357.5,391.167 357.5,384.833 357.5,378.5C 357.5,377.5 357.5,376.5 357.5,375.5C 347.5,375.5 337.5,375.5 327.5,375.5 Z"/></g>
<g><path style="opacity:1" fill="#fdfefe" d="M 153.5,378.5 C 160.087,387.762 167.087,396.762 174.5,405.5C 171.286,406.689 168.12,408.023 165,409.5C 160.963,405.631 157.13,401.631 153.5,397.5C 153.5,391.167 153.5,384.833 153.5,378.5 Z"/></g>
<g><path style="opacity:1" fill="#b1cdf8" d="M 357.5,378.5 C 357.5,384.833 357.5,391.167 357.5,397.5C 353.854,401.812 349.854,405.812 345.5,409.5C 342.399,408.143 339.399,406.81 336.5,405.5C 343.913,396.762 350.913,387.762 357.5,378.5 Z"/></g>
<g><path style="opacity:0.942" fill="#51a1ff" d="M 114.5,511.5 C 82.5,511.5 50.5,511.5 18.5,511.5C 9.16667,508.167 2.83333,501.833 -0.5,492.5C -0.5,460.5 -0.5,428.5 -0.5,396.5C 3.64648,391.106 8.64648,390.273 14.5,394C 15.717,395.648 16.5503,397.481 17,399.5C 17.3333,429.5 17.6667,459.5 18,489.5C 19.1667,490.667 20.3333,491.833 21.5,493C 51.5,493.333 81.5,493.667 111.5,494C 119.381,496.941 121.215,502.108 117,509.5C 116.005,510.066 115.172,510.733 114.5,511.5 Z"/></g>
<g><path style="opacity:0.942" fill="#51a1ff" d="M 511.5,396.5 C 511.5,428.5 511.5,460.5 511.5,492.5C 508.167,501.833 501.833,508.167 492.5,511.5C 460.5,511.5 428.5,511.5 396.5,511.5C 391.106,507.354 390.273,502.354 394,496.5C 395.648,495.283 397.481,494.45 399.5,494C 429.5,493.667 459.5,493.333 489.5,493C 490.667,491.833 491.833,490.667 493,489.5C 493.333,459.5 493.667,429.5 494,399.5C 496.941,391.619 502.108,389.785 509.5,394C 510.066,394.995 510.733,395.828 511.5,396.5 Z"/></g>
<g><path style="opacity:1" fill="#8fbffa" d="M 246.5,409.5 C 240.31,409.177 234.31,409.51 228.5,410.5C 227.957,410.44 227.624,410.107 227.5,409.5C 233.988,408.183 240.322,408.183 246.5,409.5 Z"/></g>
<g><path style="opacity:1" fill="#8fbffa" d="M 264.5,409.5 C 270.678,408.183 277.012,408.183 283.5,409.5C 283.376,410.107 283.043,410.44 282.5,410.5C 276.69,409.51 270.69,409.177 264.5,409.5 Z"/></g>
<g><path style="opacity:1" fill="#e5e9f4" d="M 246.5,409.5 C 246.828,420.679 246.495,431.679 245.5,442.5C 239.833,431.833 234.167,421.167 228.5,410.5C 234.31,409.51 240.31,409.177 246.5,409.5 Z"/></g>
<g><path style="opacity:1" fill="#95c3fa" d="M 246.5,409.5 C 247.659,420.993 247.826,432.659 247,444.5C 246.283,443.956 245.783,443.289 245.5,442.5C 246.495,431.679 246.828,420.679 246.5,409.5 Z"/></g>
<g><path style="opacity:1" fill="#95c3fa" d="M 264.5,409.5 C 264.172,420.679 264.505,431.679 265.5,442.5C 265.217,443.289 264.717,443.956 264,444.5C 263.174,432.659 263.341,420.993 264.5,409.5 Z"/></g>
<g><path style="opacity:1" fill="#e5e9f4" d="M 264.5,409.5 C 270.69,409.177 276.69,409.51 282.5,410.5C 276.833,421.167 271.167,431.833 265.5,442.5C 264.505,431.679 264.172,420.679 264.5,409.5 Z"/></g>
<g><path style="opacity:1" fill="#e4e9f4" d="M 234.5,457.5 C 219.016,444.594 203.35,431.927 187.5,419.5C 194.116,416.567 200.949,413.9 208,411.5C 217.591,426.342 226.424,441.676 234.5,457.5 Z"/></g>
<g><path style="opacity:1" fill="#e4e9f4" d="M 322.5,418.5 C 307.312,431.698 292.145,445.032 277,458.5C 276.601,458.272 276.435,457.938 276.5,457.5C 284.576,441.676 293.409,426.342 303,411.5C 309.467,413.986 315.967,416.32 322.5,418.5 Z"/></g>
<g><path style="opacity:1" fill="#fbfcfe" d="M 187.5,419.5 C 203.35,431.927 219.016,444.594 234.5,457.5C 236.408,460.312 238.075,463.312 239.5,466.5C 238.833,466.833 238.167,467.167 237.5,467.5C 231.728,465.448 226.394,462.614 221.5,459C 208.889,446.049 195.389,434.216 181,423.5C 182.029,420.875 184.195,419.541 187.5,419.5 Z"/></g>
<g><path style="opacity:1" fill="#b0ccf8" d="M 322.5,418.5 C 324.722,419.688 327.055,420.688 329.5,421.5C 330.521,422.002 330.688,422.668 330,423.5C 315.611,434.216 302.111,446.049 289.5,459C 284.381,462.893 278.714,465.726 272.5,467.5C 272.167,467.167 271.833,466.833 271.5,466.5C 272.941,463.276 274.608,460.276 276.5,457.5C 276.435,457.938 276.601,458.272 277,458.5C 292.145,445.032 307.312,431.698 322.5,418.5 Z"/></g>
</svg>
