<?xml version="1.0" ?>
<!-- Uploaded to: SVG Repo, www.svgrepo.com, Generator: SVG Repo Mixer Tools -->
<svg width="800px" height="800px" viewBox="0 0 117 117" version="1.1" xmlns="http://www.w3.org/2000/svg" xmlns:xlink="http://www.w3.org/1999/xlink">
<title/>
<desc/>
<defs/>
<g fill="none" fill-rule="evenodd" id="Page-1" stroke="none" stroke-width="1">
<g fill-rule="nonzero" id="alarm-clock">
<path d="M10.2,36.7 C7.2,43.4 5.4,50.8 5.4,58.6 C5.4,71.4 10,83.5 18.2,93.1 L1.6,109.8 C-1.55431223e-15,111.4 -1.55431223e-15,114 1.6,115.6 C2.4,116.4 3.4,116.8 4.5,116.8 C5.5,116.8 6.6,116.4 7.4,115.6 L24,98.9 C33.6,107.1 45.7,111.6 58.5,111.6 C71.6,111.6 83.7,106.8 92.9,98.8 L109.5,115.5 C110.3,116.3 111.3,116.7 112.4,116.7 C113.4,116.7 114.5,116.3 115.3,115.5 C116.9,113.9 116.9,111.3 115.3,109.7 L98.7,93 C106.7,83.7 111.5,71.7 111.5,58.5 C111.5,50.7 109.8,43.3 106.7,36.6 C112.6,33.2 116.5,26.8 116.5,19.7 C116.5,8.9 107.7,0.1 96.9,0.1 C89.8,0.1 83.4,4 80,10 C73.4,7 66.1,5.4 58.4,5.4 C50.7,5.4 43.4,7.1 36.8,10 C33.4,4 27,0.1 19.9,0.1 C9.2,0.3 0.4,9 0.4,19.8 C0.4,26.9 4.3,33.2 10.2,36.7 Z M97,8.4 C103.3,8.4 108.4,13.5 108.4,19.8 C108.4,23.8 106.3,27.5 102.9,29.5 C102.8,29.4 102.8,29.3 102.7,29.2 C102,28.2 101.3,27.2 100.5,26.2 C100.1,25.7 99.8,25.2 99.5,24.8 C98.5,23.5 97.4,22.3 96.2,21.2 C95.6,20.5 94.9,19.9 94.2,19.3 C93.5,18.7 92.8,18 92.1,17.4 C91.4,16.9 90.7,16.4 90,15.9 C89.3,15.3 88.5,14.8 87.7,14.3 C87.5,14.2 87.4,14.1 87.2,13.9 C89.3,10.6 93,8.4 97,8.4 Z M30.3,23.7 C31.2,23 32.1,22.3 33,21.7 C33.2,21.6 33.4,21.4 33.6,21.3 C40.7,16.5 49.3,13.8 58.5,13.8 C67.7,13.8 76.2,16.6 83.3,21.3 C83.5,21.5 83.7,21.6 84,21.8 C84.9,22.4 85.8,23.1 86.6,23.8 C86.8,24 87,24.1 87.2,24.3 C88.2,25.2 89.2,26 90.2,27 C91.1,27.9 91.9,28.9 92.8,29.8 C93,30.1 93.3,30.4 93.5,30.7 C94.1,31.4 94.7,32.2 95.2,33 C95.4,33.3 95.7,33.6 95.9,33.9 C100.6,41 103.4,49.5 103.4,58.7 C103.4,70.4 98.9,81 91.6,89 C90.9,89.2 90.3,89.5 89.7,90 C89.2,90.5 88.9,91.2 88.7,91.9 C80.7,99.2 70.1,103.7 58.5,103.7 C46.2,103.7 34.8,98.8 26.2,90 C18,81.6 13.6,70.5 13.6,58.8 C13.6,49.6 16.4,41.1 21.1,34 C21.3,33.7 21.5,33.4 21.7,33.1 C22.3,32.3 22.8,31.5 23.4,30.8 C23.6,30.5 23.8,30.2 24.1,30 C25.8,28 27.7,26.1 29.7,24.4 C29.9,24 30.1,23.8 30.3,23.7 Z M20,8.4 C24,8.4 27.7,10.6 29.7,13.9 C29.5,14 29.4,14.1 29.2,14.3 C28.4,14.8 27.7,15.4 27,15.9 C26.3,16.4 25.6,16.9 24.9,17.5 C24.2,18.1 23.6,18.7 22.9,19.3 C22,20.1 21.2,20.9 20.3,21.8 C19.3,22.8 18.3,23.9 17.4,25 C17,25.5 16.7,26 16.3,26.5 C15.6,27.5 14.8,28.4 14.2,29.4 C14.1,29.5 14.1,29.6 14,29.7 C10.7,27.7 8.5,24 8.5,20 C8.6,13.5 13.7,8.4 20,8.4 Z" fill="#4A4A4A" id="Shape"/>
<path d="M58.5,62.7 L76.1,62.7 C78.4,62.7 80.2,60.9 80.2,58.6 C80.2,56.3 78.4,54.5 76.1,54.5 L62.6,54.5 L62.6,33.2 C62.6,30.9 60.8,29.1 58.5,29.1 C56.2,29.1 54.4,30.9 54.4,33.2 L54.4,58.6 C54.4,60.8 56.2,62.7 58.5,62.7 Z" fill="#17AB13" id="Shape"/>
</g>
</g>
</svg>