<?xml version="1.0" ?>
<!-- Uploaded to: SVG Repo, www.svgrepo.com, Generator: SVG Repo Mixer Tools -->
<svg width="800px" height="800px" viewBox="0 0 117 117" version="1.1" xmlns="http://www.w3.org/2000/svg" xmlns:xlink="http://www.w3.org/1999/xlink">
<title/>
<desc/>
<defs/>
<g fill="none" fill-rule="evenodd" id="Page-1" stroke="none" stroke-width="1">
<g fill-rule="nonzero" id="gallery">
<circle cx="70" cy="36.4" fill="#17AB13" id="Oval" r="12"/>
<path d="M0.4,113.5 C0.4,113.5 0.4,113.6 0.4,113.5 C0.4,113.6 0.4,113.6 0.5,113.6 C0.6,113.8 0.7,114.1 0.8,114.3 C0.8,114.4 0.9,114.4 0.9,114.5 C0.9,114.6 1,114.6 1,114.7 C1,114.7 1.1,114.8 1.1,114.8 C1.2,115 1.4,115.1 1.5,115.3 C1.5,115.3 1.6,115.4 1.6,115.4 C1.7,115.5 1.7,115.5 1.8,115.6 C1.9,115.6 1.9,115.7 1.9,115.7 C2,115.8 2.1,115.8 2.2,115.9 C2.2,115.9 2.3,116 2.3,116 C2.3,116 2.4,116 2.4,116.1 C2.5,116.2 2.7,116.2 2.8,116.3 C2.9,116.3 2.9,116.3 3,116.4 C3.1,116.4 3.2,116.5 3.2,116.5 C3.5,116.6 3.8,116.6 4.1,116.6 L112.3,116.6 C114.6,116.6 116.4,114.8 116.4,112.5 L116.4,85.5 L116.4,4.6 C116.4,2.3 114.6,0.5 112.3,0.5 L4.4,0.5 C2.1,0.5 0.3,2.3 0.3,4.6 L0.3,85.3 L0.3,112.3 C0.3,112.6 0.4,113 0.4,113.3 C0.4,113.4 0.4,113.5 0.4,113.5 Z M108.5,108.3 L18.1,108.3 L84.9,64.6 L108.5,87.1 L108.5,108.3 Z M8.5,8.7 L108.5,8.7 L108.5,75.8 L88.2,56.4 C86.8,55.1 84.7,54.9 83.1,55.9 L64,68.5 L50.7,55.1 C49.3,53.7 47.2,53.5 45.6,54.5 L8.5,77.9 L8.5,8.7 Z M8.5,87.6 L47.2,63.2 L57,73.1 L8.5,104.8 L8.5,87.6 Z" fill="#4A4A4A" id="Shape"/>
</g>
</g>
</svg>