<?xml version="1.0" ?>
<!-- Uploaded to: SVG Repo, www.svgrepo.com, Generator: SVG Repo Mixer Tools -->
<svg width="800px" height="800px" viewBox="-18 0 117 117" version="1.1" xmlns="http://www.w3.org/2000/svg" xmlns:xlink="http://www.w3.org/1999/xlink">
<title/>
<desc/>
<defs/>
<g fill="none" fill-rule="evenodd" id="Page-1" stroke="none" stroke-width="1">
<g fill-rule="nonzero" id="rocket">
<path d="M76.1,100.2 C78.4,100.2 80.2,98.4 80.2,96.1 L80.2,87.7 C80.2,79.5 76.9,71.8 71,66.2 C71.4,63.6 71.7,61 71.7,58.5 C71.7,30 44.6,2.5 43.4,1.4 C42.6,0.6 41.6,0.2 40.5,0.2 C39.4,0.2 38.4,0.6 37.6,1.4 C36.5,2.6 9.5,30.1 9.5,58.5 C9.5,61 9.7,63.5 10.1,66 C4.2,71.7 0.8,79.4 0.8,87.7 L0.8,96.1 C0.8,98.4 2.6,100.2 4.9,100.2 C7.2,100.2 9,98.4 9,96.1 L9,87.7 C9,83.4 10.3,79.3 12.5,75.8 C13.7,79.5 15.4,83.4 17.4,87.3 C18.1,88.7 19.5,89.5 21.1,89.5 L36.5,89.5 L36.5,96.1 C36.5,98.4 38.3,100.2 40.6,100.2 C42.9,100.2 44.7,98.4 44.7,96.1 L44.7,89.5 L60.2,89.5 C61.7,89.5 63.1,88.6 63.9,87.3 C65.9,83.5 67.5,79.7 68.7,76 C70.9,79.5 72.1,83.5 72.1,87.7 L72.1,96.1 C72,98.3 73.8,100.2 76.1,100.2 Z M57.6,81.3 L44.6,81.3 L44.6,74.7 C44.6,72.4 42.8,70.6 40.5,70.6 C38.2,70.6 36.4,72.4 36.4,74.7 L36.4,81.3 L23.6,81.3 C21.3,76.4 19.6,71.6 18.7,67.2 C18.7,66.9 18.6,66.6 18.5,66.3 C18,63.6 17.7,61 17.7,58.5 C17.7,38.7 33.8,18.1 40.5,10.4 C47.3,18.1 63.5,38.6 63.5,58.5 C63.5,65.4 61.5,73.1 57.6,81.3 Z" fill="#4A4A4A" id="Shape"/>
<path d="M25.9,46.9 C25.9,55 32.5,61.7 40.7,61.7 C48.9,61.7 55.5,55.1 55.5,46.9 C55.5,38.7 48.9,32.1 40.7,32.1 C32.5,32.1 25.9,38.8 25.9,46.9 Z M40.7,40.4 C44.3,40.4 47.3,43.3 47.3,47 C47.3,50.7 44.4,53.6 40.7,53.6 C37.1,53.6 34.1,50.7 34.1,47 C34.1,43.3 37.1,40.4 40.7,40.4 Z" fill="#17AB13" id="Shape"/>
<path d="M21.9,112.7 L21.9,99 C21.9,96.7 20.1,94.9 17.8,94.9 C15.5,94.9 13.7,96.7 13.7,99 L13.7,112.7 C13.7,115 15.5,116.8 17.8,116.8 C20.1,116.8 21.9,115 21.9,112.7 Z" fill="#17AB13" id="Shape"/>
<path d="M67.3,112.7 L67.3,99 C67.3,96.7 65.5,94.9 63.2,94.9 C60.9,94.9 59.1,96.7 59.1,99 L59.1,112.7 C59.1,115 60.9,116.8 63.2,116.8 C65.4,116.8 67.3,115 67.3,112.7 Z" fill="#17AB13" id="Shape"/>
</g>
</g>
</svg>