<?xml version="1.0" ?>
<!-- Uploaded to: SVG Repo, www.svgrepo.com, Generator: SVG Repo Mixer Tools -->
<svg width="800px" height="800px" viewBox="0 0 117 117" version="1.1" xmlns="http://www.w3.org/2000/svg" xmlns:xlink="http://www.w3.org/1999/xlink">
<title/>
<desc/>
<defs/>
<g fill="none" fill-rule="evenodd" id="Page-1" stroke="none" stroke-width="1">
<g fill-rule="nonzero" id="power">
<path d="M58.5,116.5 C90.5,116.5 116.5,90.5 116.5,58.5 C116.5,31.2 97.9,7.9 71.3,1.9 C69.1,1.4 66.9,2.8 66.4,5 C65.9,7.2 67.3,9.4 69.5,9.9 C92.4,15 108.4,35 108.4,58.5 C108.4,86 86,108.4 58.5,108.4 C31,108.4 8.6,86 8.6,58.5 C8.6,35.1 24.5,15.2 47.2,9.9 C49.4,9.4 50.8,7.2 50.3,5 C49.8,2.8 47.6,1.4 45.4,1.9 C18.9,8 0.4,31.3 0.4,58.5 C0.4,90.5 26.5,116.5 58.5,116.5 Z" fill="#4A4A4A" id="Shape"/>
<path d="M54.4,4.6 L54.4,58.5 C54.4,60.8 56.2,62.6 58.5,62.6 C60.8,62.6 62.6,60.8 62.6,58.5 L62.6,4.6 C62.6,2.3 60.8,0.5 58.5,0.5 C56.2,0.5 54.4,2.3 54.4,4.6 Z" fill="#17AB13" id="Shape"/>
</g>
</g>
</svg>