<svg width="32" height="42" viewBox="0 0 32 42" fill="none" xmlns="http://www.w3.org/2000/svg">
<path d="M30.6355 41.0014C25.8817 39.1087 24.5392 37.9863 24.2531 37.7002V35.6094C22.2063 37.0619 18.4209 39.3948 15.3177 39.3948C12.2366 39.3948 8.42916 37.0619 6.38239 35.6094V37.7002C6.09628 37.9863 4.77579 39.1087 0 41.0014H30.6135H30.6355Z" fill="url(#paint0_linear_779_1866)"/>
<path d="M2.70685 24.4292C3.23505 27.6864 5.5019 32.8803 7.28457 34.1568C10.4538 36.4017 13.3809 37.7001 15.3396 37.7001C17.2983 37.7001 20.2254 36.4017 23.3946 34.1568C23.8568 33.8267 24.363 33.2105 24.8472 32.4402L23.2406 30.8336C22.6903 30.2834 22.3822 29.5351 22.3822 28.7428C22.3822 28.2366 22.5143 27.7524 22.7344 27.3343L20.6876 25.2875C19.191 26.52 17.3203 27.2022 15.3396 27.2022C13.0727 27.2022 10.9599 26.3219 9.35335 24.7153C7.74674 23.1087 6.86641 20.9959 6.86641 18.729C6.86641 16.4622 7.74674 14.3494 9.35335 12.7428C10.9599 11.1362 13.0727 10.2558 15.3396 10.2558C17.6064 10.2558 19.7192 11.1362 21.3258 12.7428C22.9324 14.3494 23.8128 16.4622 23.8128 18.729C23.8128 20.7098 23.1305 22.5805 21.898 24.077L23.9448 26.1238C25.0672 25.5296 26.4978 25.6836 27.4441 26.63C27.6862 25.8597 27.8623 25.1114 27.9723 24.4512L28.0163 24.2751C29.2488 20.5997 29.645 18.641 29.5789 18.0468C29.5129 17.2325 29.1168 16.4842 28.8086 16L28.5886 15.6699L28.7426 10.8281C28.8967 6.51444 27.18 3.87345 23.6367 3.01513L23.2185 2.90509L22.9544 2.57497C22.1181 1.51857 20.4015 0.088033 15.1635 0C15.0095 0 14.8554 0 14.7014 0C9.70548 0 6.0301 1.62861 3.71923 4.86382C2.46476 6.62449 1.84853 8.69326 1.91456 10.8501L2.06861 15.6919L1.84853 16.022C1.54042 16.5062 1.14427 17.2545 1.07824 18.0688C1.03423 18.685 1.40837 20.6217 2.64083 24.2751L2.68484 24.4512L2.70685 24.4292Z" fill="url(#paint1_linear_779_1866)"/>
<path d="M15.3397 14.5035V12.8088C13.7551 12.8088 12.2805 13.4251 11.1581 14.5475C10.0357 15.6699 9.41943 17.1445 9.41943 18.7291C9.41943 20.3137 10.0357 21.7882 11.1581 22.9106L12.3465 21.7222C11.5542 20.9299 11.1141 19.8735 11.1141 18.7291C11.1141 17.5846 11.5542 16.5282 12.3465 15.7359C13.1388 14.9436 14.2172 14.5035 15.3397 14.5035Z" fill="url(#paint2_linear_779_1866)"/>
<path d="M26.2339 27.8404C25.9918 27.5984 25.6617 27.4663 25.3316 27.4663C25.0015 27.4663 24.6713 27.5984 24.4293 27.8404C24.1872 28.0825 24.0551 28.3907 24.0551 28.7428C24.0551 29.0949 24.1872 29.403 24.4293 29.6451L29.8213 35.0371C30.3055 35.5213 31.1198 35.5213 31.626 35.0371C31.868 34.7951 32.0001 34.4869 32.0001 34.1348C32.0001 33.7827 31.868 33.4746 31.626 33.2325L26.2339 27.8404Z" fill="url(#paint3_linear_779_1866)"/>
<defs>
<linearGradient id="paint0_linear_779_1866" x1="15.3177" y1="35.6094" x2="15.3177" y2="41.0014" gradientUnits="userSpaceOnUse">
<stop offset="0.15625" stop-color="#C7CAFD" stop-opacity="0.911628"/>
<stop offset="0.557292" stop-color="#A1A5E3"/>
<stop offset="0.958333" stop-color="#525BA8"/>
</linearGradient>
<linearGradient id="paint1_linear_779_1866" x1="15.3304" y1="0" x2="15.3304" y2="37.7001" gradientUnits="userSpaceOnUse">
<stop offset="0.15625" stop-color="#C7CAFD" stop-opacity="0.911628"/>
<stop offset="0.557292" stop-color="#A1A5E3"/>
<stop offset="0.958333" stop-color="#525BA8"/>
</linearGradient>
<linearGradient id="paint2_linear_779_1866" x1="12.3795" y1="12.8088" x2="12.3795" y2="22.9106" gradientUnits="userSpaceOnUse">
<stop offset="0.15625" stop-color="#C7CAFD" stop-opacity="0.911628"/>
<stop offset="0.557292" stop-color="#A1A5E3"/>
<stop offset="0.958333" stop-color="#525BA8"/>
</linearGradient>
<linearGradient id="paint3_linear_779_1866" x1="28.0276" y1="27.4663" x2="28.0276" y2="35.4003" gradientUnits="userSpaceOnUse">
<stop offset="0.15625" stop-color="#C7CAFD" stop-opacity="0.911628"/>
<stop offset="0.557292" stop-color="#A1A5E3"/>
<stop offset="0.958333" stop-color="#525BA8"/>
</linearGradient>
</defs>
</svg>
