<svg width="47" height="48" viewBox="0 0 47 48" fill="none" xmlns="http://www.w3.org/2000/svg">
<path d="M29.3168 34.9106V34.1156C29.3168 33.8442 29.3944 33.5921 29.5689 33.3594C29.9179 32.8941 31.3527 30.2377 31.7987 27.3875C32.012 26.767 32.8845 24.0913 32.8263 23.2963C32.7682 22.6177 32.3804 22.0166 32.1865 21.7452L32.2834 18.7204C32.3804 15.8314 31.1007 13.9894 28.6576 13.4659C28.2504 12.9036 27.3003 11.6433 23.4031 11.5657C19.9323 11.4882 17.4893 12.5546 15.9187 14.765C15.085 15.9283 14.6778 17.2856 14.736 18.7204L14.8329 21.7452C14.639 22.0166 14.2512 22.6177 14.1931 23.2963C14.1349 24.1107 15.0074 26.767 15.2207 27.3875C15.6667 30.2184 17.1015 32.8941 17.4505 33.3594C17.6056 33.5727 17.7026 33.8442 17.7026 34.1156V34.9106C17.4893 35.1627 16.6361 35.9964 14.0573 37.1016C16.7331 39.0018 19.9905 40.1264 23.5194 40.1264C27.0483 40.1264 30.3057 39.0018 32.9814 37.1016C30.3833 35.9964 29.5301 35.1627 29.3362 34.9106H29.3168Z" fill="url(#paint0_linear_779_1883)"/>
<path d="M24.4307 0.242188H22.5887V5.05077H24.4307V0.242188Z" fill="url(#paint1_linear_779_1883)"/>
<path d="M16.953 1.15655L15.2053 1.73828L16.7239 6.30076L18.4716 5.71903L16.953 1.15655Z" fill="url(#paint2_linear_779_1883)"/>
<path d="M10.3677 4.2489L8.88208 5.33783L11.7248 9.21618L13.2104 8.12725L10.3677 4.2489Z" fill="url(#paint3_linear_779_1883)"/>
<path d="M5.08136 9.12579L3.99243 10.6115L7.87078 13.4541L8.95971 11.9685L5.08136 9.12579Z" fill="url(#paint4_linear_779_1883)"/>
<path d="M1.49817 15.4642L0.916443 17.212L5.47892 18.7306L6.06065 16.9829L1.49817 15.4642Z" fill="url(#paint5_linear_779_1883)"/>
<path d="M4.80858 22.8309H0V24.6729H4.80858V22.8309Z" fill="url(#paint6_linear_779_1883)"/>
<path d="M5.47835 28.785L0.915863 30.3036L1.49759 32.0513L6.06008 30.5327L5.47835 28.785Z" fill="url(#paint7_linear_779_1883)"/>
<path d="M7.87515 34.0671L3.9968 36.9098L5.08573 38.3954L8.96408 35.5528L7.87515 34.0671Z" fill="url(#paint8_linear_779_1883)"/>
<path d="M11.7222 38.2769L8.87955 42.1553L10.3652 43.2442L13.2079 39.3659L11.7222 38.2769Z" fill="url(#paint9_linear_779_1883)"/>
<path d="M16.7234 41.2139L15.2048 45.7764L16.9525 46.3581L18.4711 41.7956L16.7234 41.2139Z" fill="url(#paint10_linear_779_1883)"/>
<path d="M24.4307 42.453H22.5887V47.2616H24.4307V42.453Z" fill="url(#paint11_linear_779_1883)"/>
<path d="M30.2919 41.1965L28.5442 41.7782L30.0628 46.3407L31.8105 45.759L30.2919 41.1965Z" fill="url(#paint12_linear_779_1883)"/>
<path d="M35.3006 38.294L33.8149 39.3829L36.6576 43.2613L38.1433 42.1724L35.3006 38.294Z" fill="url(#paint13_linear_779_1883)"/>
<path d="M39.139 34.0483L38.0501 35.5339L41.9285 38.3766L43.0174 36.891L39.139 34.0483Z" fill="url(#paint14_linear_779_1883)"/>
<path d="M41.5241 28.7789L40.9423 30.5266L45.5048 32.0452L46.0865 30.2975L41.5241 28.7789Z" fill="url(#paint15_linear_779_1883)"/>
<path d="M47 22.8309H42.1914V24.6729H47V22.8309Z" fill="url(#paint16_linear_779_1883)"/>
<path d="M45.5182 15.446L40.9557 16.9646L41.5374 18.7123L46.0999 17.1937L45.5182 15.446Z" fill="url(#paint17_linear_779_1883)"/>
<path d="M41.9354 9.14206L38.0571 11.9847L39.146 13.4704L43.0244 10.6277L41.9354 9.14206Z" fill="url(#paint18_linear_779_1883)"/>
<path d="M36.6446 4.23865L33.8019 8.117L35.2876 9.20594L38.1303 5.32759L36.6446 4.23865Z" fill="url(#paint19_linear_779_1883)"/>
<path d="M30.0627 1.15639L28.544 5.71887L30.2918 6.3006L31.8104 1.73812L30.0627 1.15639Z" fill="url(#paint20_linear_779_1883)"/>
<defs>
<linearGradient id="paint0_linear_779_1883" x1="23.5194" y1="11.5618" x2="23.5194" y2="40.1264" gradientUnits="userSpaceOnUse">
<stop offset="0.15625" stop-color="#C7CAFD" stop-opacity="0.911628"/>
<stop offset="0.557292" stop-color="#A1A5E3"/>
<stop offset="0.958333" stop-color="#525BA8"/>
</linearGradient>
<linearGradient id="paint1_linear_779_1883" x1="23.5097" y1="0.242187" x2="23.5097" y2="5.05077" gradientUnits="userSpaceOnUse">
<stop offset="0.15625" stop-color="#C7CAFD" stop-opacity="0.911628"/>
<stop offset="0.557292" stop-color="#A1A5E3"/>
<stop offset="0.958333" stop-color="#525BA8"/>
</linearGradient>
<linearGradient id="paint2_linear_779_1883" x1="16.0792" y1="1.44742" x2="17.5978" y2="6.0099" gradientUnits="userSpaceOnUse">
<stop offset="0.15625" stop-color="#C7CAFD" stop-opacity="0.911628"/>
<stop offset="0.557292" stop-color="#A1A5E3"/>
<stop offset="0.958333" stop-color="#525BA8"/>
</linearGradient>
<linearGradient id="paint3_linear_779_1883" x1="9.62491" y1="4.79336" x2="12.4676" y2="8.67171" gradientUnits="userSpaceOnUse">
<stop offset="0.15625" stop-color="#C7CAFD" stop-opacity="0.911628"/>
<stop offset="0.557292" stop-color="#A1A5E3"/>
<stop offset="0.958333" stop-color="#525BA8"/>
</linearGradient>
<linearGradient id="paint4_linear_779_1883" x1="4.5369" y1="9.86862" x2="8.41525" y2="12.7113" gradientUnits="userSpaceOnUse">
<stop offset="0.15625" stop-color="#C7CAFD" stop-opacity="0.911628"/>
<stop offset="0.557292" stop-color="#A1A5E3"/>
<stop offset="0.958333" stop-color="#525BA8"/>
</linearGradient>
<linearGradient id="paint5_linear_779_1883" x1="1.20731" y1="16.3381" x2="5.76979" y2="17.8567" gradientUnits="userSpaceOnUse">
<stop offset="0.15625" stop-color="#C7CAFD" stop-opacity="0.911628"/>
<stop offset="0.557292" stop-color="#A1A5E3"/>
<stop offset="0.958333" stop-color="#525BA8"/>
</linearGradient>
<linearGradient id="paint6_linear_779_1883" x1="2.40429" y1="22.8309" x2="2.40429" y2="24.6729" gradientUnits="userSpaceOnUse">
<stop offset="0.15625" stop-color="#C7CAFD" stop-opacity="0.911628"/>
<stop offset="0.557292" stop-color="#A1A5E3"/>
<stop offset="0.958333" stop-color="#525BA8"/>
</linearGradient>
<linearGradient id="paint7_linear_779_1883" x1="3.1971" y1="29.5443" x2="3.77883" y2="31.292" gradientUnits="userSpaceOnUse">
<stop offset="0.15625" stop-color="#C7CAFD" stop-opacity="0.911628"/>
<stop offset="0.557292" stop-color="#A1A5E3"/>
<stop offset="0.958333" stop-color="#525BA8"/>
</linearGradient>
<linearGradient id="paint8_linear_779_1883" x1="5.93597" y1="35.4884" x2="7.0249" y2="36.9741" gradientUnits="userSpaceOnUse">
<stop offset="0.15625" stop-color="#C7CAFD" stop-opacity="0.911628"/>
<stop offset="0.557292" stop-color="#A1A5E3"/>
<stop offset="0.958333" stop-color="#525BA8"/>
</linearGradient>
<linearGradient id="paint9_linear_779_1883" x1="10.3009" y1="40.2161" x2="11.7865" y2="41.305" gradientUnits="userSpaceOnUse">
<stop offset="0.15625" stop-color="#C7CAFD" stop-opacity="0.911628"/>
<stop offset="0.557292" stop-color="#A1A5E3"/>
<stop offset="0.958333" stop-color="#525BA8"/>
</linearGradient>
<linearGradient id="paint10_linear_779_1883" x1="15.9641" y1="43.4951" x2="17.7118" y2="44.0769" gradientUnits="userSpaceOnUse">
<stop offset="0.15625" stop-color="#C7CAFD" stop-opacity="0.911628"/>
<stop offset="0.557292" stop-color="#A1A5E3"/>
<stop offset="0.958333" stop-color="#525BA8"/>
</linearGradient>
<linearGradient id="paint11_linear_779_1883" x1="23.5097" y1="42.453" x2="23.5097" y2="47.2616" gradientUnits="userSpaceOnUse">
<stop offset="0.15625" stop-color="#C7CAFD" stop-opacity="0.911628"/>
<stop offset="0.557292" stop-color="#A1A5E3"/>
<stop offset="0.958333" stop-color="#525BA8"/>
</linearGradient>
<linearGradient id="paint12_linear_779_1883" x1="29.418" y1="41.4873" x2="30.9366" y2="46.0498" gradientUnits="userSpaceOnUse">
<stop offset="0.15625" stop-color="#C7CAFD" stop-opacity="0.911628"/>
<stop offset="0.557292" stop-color="#A1A5E3"/>
<stop offset="0.958333" stop-color="#525BA8"/>
</linearGradient>
<linearGradient id="paint13_linear_779_1883" x1="34.5578" y1="38.8385" x2="37.4005" y2="42.7168" gradientUnits="userSpaceOnUse">
<stop offset="0.15625" stop-color="#C7CAFD" stop-opacity="0.911628"/>
<stop offset="0.557292" stop-color="#A1A5E3"/>
<stop offset="0.958333" stop-color="#525BA8"/>
</linearGradient>
<linearGradient id="paint14_linear_779_1883" x1="38.5946" y1="34.7911" x2="42.4729" y2="37.6338" gradientUnits="userSpaceOnUse">
<stop offset="0.15625" stop-color="#C7CAFD" stop-opacity="0.911628"/>
<stop offset="0.557292" stop-color="#A1A5E3"/>
<stop offset="0.958333" stop-color="#525BA8"/>
</linearGradient>
<linearGradient id="paint15_linear_779_1883" x1="41.2332" y1="29.6527" x2="45.7957" y2="31.1714" gradientUnits="userSpaceOnUse">
<stop offset="0.15625" stop-color="#C7CAFD" stop-opacity="0.911628"/>
<stop offset="0.557292" stop-color="#A1A5E3"/>
<stop offset="0.958333" stop-color="#525BA8"/>
</linearGradient>
<linearGradient id="paint16_linear_779_1883" x1="44.5957" y1="22.8309" x2="44.5957" y2="24.6729" gradientUnits="userSpaceOnUse">
<stop offset="0.15625" stop-color="#C7CAFD" stop-opacity="0.911628"/>
<stop offset="0.557292" stop-color="#A1A5E3"/>
<stop offset="0.958333" stop-color="#525BA8"/>
</linearGradient>
<linearGradient id="paint17_linear_779_1883" x1="43.2369" y1="16.2053" x2="43.8187" y2="17.953" gradientUnits="userSpaceOnUse">
<stop offset="0.15625" stop-color="#C7CAFD" stop-opacity="0.911628"/>
<stop offset="0.557292" stop-color="#A1A5E3"/>
<stop offset="0.958333" stop-color="#525BA8"/>
</linearGradient>
<linearGradient id="paint18_linear_779_1883" x1="39.9963" y1="10.5634" x2="41.0852" y2="12.0491" gradientUnits="userSpaceOnUse">
<stop offset="0.15625" stop-color="#C7CAFD" stop-opacity="0.911628"/>
<stop offset="0.557292" stop-color="#A1A5E3"/>
<stop offset="0.958333" stop-color="#525BA8"/>
</linearGradient>
<linearGradient id="paint19_linear_779_1883" x1="35.2233" y1="6.17783" x2="36.7089" y2="7.26676" gradientUnits="userSpaceOnUse">
<stop offset="0.15625" stop-color="#C7CAFD" stop-opacity="0.911628"/>
<stop offset="0.557292" stop-color="#A1A5E3"/>
<stop offset="0.958333" stop-color="#525BA8"/>
</linearGradient>
<linearGradient id="paint20_linear_779_1883" x1="29.3033" y1="3.43763" x2="31.0511" y2="4.01936" gradientUnits="userSpaceOnUse">
<stop offset="0.15625" stop-color="#C7CAFD" stop-opacity="0.911628"/>
<stop offset="0.557292" stop-color="#A1A5E3"/>
<stop offset="0.958333" stop-color="#525BA8"/>
</linearGradient>
</defs>
</svg>
